PathFileType	3	(X/Y/Z)	D:\minhoCalibration\240510\subject2_KPNP\preferred\preferred16.trc
DataRate	CameraRate	NumFrames	NumMarkers	Units	OrigDataRate	OrigDataStartFrame	OrigNumFrames
200.0	200.0	18	10	mm	200.0	896	215	
Frame#	Time	Left_Ankle_Outer1			Left_Ankle_Inner1			Left_Knee_Outer1			Left_Knee_Inner1			Left_Wrist1			Right_Wrist1			Right_Knee_Inner1			Right_Knee_Outer1			Right_Ankle_Inner1			Right_Ankle_Outer1			
		X1	Y1	Z1	X2	Y2	Z2	X3	Y3	Z3	X4	Y4	Z4	X5	Y5	Z5	X6	Y6	Z6	X7	Y7	Z7	X8	Y8	Z8	X9	Y9	Z9	X10	Y10	Z10	
896	4.47	-696.86218	93.66037	-748.60321	-713.36023	100.81477	-692.85272	-475.79999	494.74414	-748.45123	-527.03369	482.7648	-664.59735	-504.55237	971.96716	-827.72491	-787.39099	1044.158	-642.43994	-906.64142	600.54779	-414.56409	-979.01788	672.89862	-431.08487	-937.66565	466.92416	-813.90643	-1026.5541	514.18903	-825.5788
897	4.475	-696.8316	94.432556	-748.93811	-712.64154	101.4075	-693.71796	-477.44611	495.42764	-750.74304	-527.03595	483.76532	-666.78534	-504.81116	973.026	-830.57404	-780.06702	1048.7772	-636.08527	-894.70752	609.99377	-397.30829	-966.71881	682.82947	-412.81454	-935.17358	482.93893	-797.99219	-1024.5925	531.29156	-806.08661
898	4.48	-696.81891	95.207565	-749.19482	-712.19794	102.20813	-693.95673	-478.7478	496.28833	-753.23621	-527.11493	484.69064	-668.80103	-504.65536	974.13965	-833.75598	-772.78345	1053.454	-630.12329	-881.98657	619.88599	-380.40607	-954.27405	693.48309	-393.63116	-932.01984	499.69928	-782.29871	-1020.8279	549.11676	-787.39923
899	4.485	-696.69916	95.900139	-749.18738	-711.57611	102.90864	-694.08887	-479.74368	497.31769	-755.83844	-527.04761	485.71173	-670.45398	-504.90927	974.7702	-836.98682	-765.58624	1058.146	-624.67542	-869.22015	630.05615	-363.07642	-940.82697	704.33923	-375.17041	-929.02521	516.59912	-766.38727	-1017.5221	566.59009	-768.63232
900	4.49	-696.71558	96.831703	-749.2157	-710.67505	102.16179	-696.41144	-480.80344	498.27127	-758.27545	-527.03021	486.85175	-672.05634	-505.48773	975.45728	-840.10278	-758.48035	1062.8383	-619.50909	-855.34711	640.65411	-346.61496	-927.0473	715.50726	-356.73755	-926.41095	533.06537	-749.62	-1013.8101	583.75983	-750.58466
901	4.495	-696.72308	97.728226	-749.06287	-710.2594	102.8012	-696.20929	-481.71005	499.34091	-760.60358	-526.76318	488.15671	-673.88715	-506.43259	975.76776	-843.09503	-751.48022	1067.5507	-614.85718	-840.72223	651.56085	-330.12811	-912.27649	726.66162	-339.88422	-923.37775	549.98285	-733.24725	-1010.8334	600.90845	-730.32788
902	4.5	-696.63416	98.530113	-748.64062	-709.97577	105.15514	-693.51617	-482.51846	500.25989	-762.93378	-526.37311	489.26016	-675.34924	-507.66962	975.91821	-846.06714	-744.59924	1072.2273	-610.54865	-825.88745	663.08234	-314.19772	-897.71509	741.60144	-316.10294	-921.3186	566.29785	-715.76569	-1008.5742	617.95026	-709.17926
903	4.505	-696.75543	99.184448	-748.07294	-709.18402	104.81042	-694.72552	-483.16235	501.33914	-765.18964	-525.60382	490.29544	-676.66699	-509.77658	975.75079	-848.8255	-737.95343	1077.1028	-606.60114	-810.22479	674.73468	-298.6813	-880.62653	752.04041	-304.01123	-918.7002	582.76404	-698.5235	-1004.7411	635.28204	-689.37646
904	4.51	-696.59692	99.100151	-745.91382	-708.55402	106.06403	-693.17078	-483.58472	502.20401	-767.39038	-524.18091	491.08179	-677.60309	-511.96628	975.40521	-851.68188	-731.41724	1081.8032	-603.02814	-794.18817	687.16052	-283.53336	-863.91083	767.00854	-284.52322	-917.04169	598.31506	-679.96198	-1001.4683	652.28418	-668.26544
905	4.515	-697.14227	100.4797	-745.57007	-708.2901	107.63562	-690.48395	-483.82358	503.07309	-769.60529	-522.62854	491.86203	-679.00562	-514.53851	974.85718	-854.39227	-724.80896	1086.4922	-599.72516	-777.36749	699.72449	-269.09714	-846.02924	780.28564	-269.09198	-914.87457	613.74878	-662.14771	-998.69208	669.90192	-645.68671
906	4.52	-697.59491	101.31716	-744.00696	-708.02185	108.11485	-689.06665	-483.84924	503.83765	-771.91272	-520.58459	492.45267	-680.46899	-517.59998	974.15509	-856.96283	-718.5365	1091.0432	-596.76605	-759.80377	712.71869	-255.48444	-826.96735	794.92499	-253.46574	-913.52893	628.5741	-642.49622	-994.82892	687.19507	-622.53772
907	4.525	-697.99744	101.83587	-741.81189	-707.05249	108.26415	-688.87537	-483.81525	504.51135	-774.3266	-518.18561	492.83176	-681.97498	-521.52435	972.87823	-859.50012	-712.37482	1095.7487	-594.13824	-741.49908	725.90765	-242.51347	-807.07654	809.14111	-239.72118	-912.16821	643.20062	-622.78662	-990.76666	702.47662	-602.49274
908	4.53	-698.61102	102.83498	-739.88519	-707.04657	110.23821	-685.12091	-483.7912	504.93158	-776.88757	-515.3988	492.94763	-683.65051	-525.32526	971.85095	-861.85522	-706.11084	1100.1582	-591.55719	-722.58527	739.40979	-230.53281	-785.44916	823.41138	-228.26419	-910.9563	657.64252	-602.50745	-988.01111	719.5719	-577.35968
909	4.535	-699.13928	103.97778	-738.16418	-706.4516	111.42662	-682.94202	-483.14062	505.59802	-779.98621	-512.4364	492.55884	-685.23468	-529.82678	970.50366	-863.91223	-700.29797	1104.3306	-589.19287	-703.08801	753.17853	-219.41312	-764.19696	839.70911	-213.83623	-909.79242	671.73157	-581.22595	-982.9621	735.57178	-556.21497
910	4.54	-699.62457	104.79672	-735.72668	-705.81104	112.66123	-680.58679	-483.16678	505.71793	-782.70605	-508.96548	492.37466	-687.12311	-534.79596	968.90576	-865.89691	-694.125	1108.5309	-586.93567	-683.02905	767.04358	-209.33609	-741.02856	854.98444	-203.7937	-909.34778	684.68353	-559.10419	-978.54462	751.13806	-532.39691
911	4.545	-700.01636	105.81518	-733.49286	-704.52405	113.09192	-679.77917	-483.34323	505.80573	-785.44055	-505.53799	492.03613	-689.09741	-539.59625	967.6687	-867.64905	-688.75226	1112.1631	-585.18237	-662.35559	781.23535	-200.4706	-717.92859	871.30029	-192.75496	-907.37079	698.06555	-537.38586	-973.90063	766.54352	-508.96173
912	4.55	-700.32172	106.9017	-731.46228	-704.05157	115.1832	-675.88678	-483.54681	505.79245	-788.25562	-502.09265	491.67804	-691.23676	-545.4895	965.53973	-869.26471	-682.84381	1116.8796	-583.40887	-641.42377	795.55432	-192.78584	-693.90295	887.27625	-184.61086	-908.29584	711.36047	-512.5423	-970.0481	783.14294	-481.58594
913	4.555	-700.52332	107.86684	-729.35236	-702.78894	116.69263	-673.49139	-483.60739	505.8577	-791.276	-498.71353	491.42001	-693.50665	-551.02222	964.04675	-870.27606	-676.16406	1120.6167	-581.68988	-620.15393	809.86163	-186.43938	-669.14606	903.04333	-178.60078	-907.88379	723.45923	-487.42075	-965.09949	798.58704	-455.44742
